<mxfile host="app.diagrams.net" modified="2020-10-19T05:16:30.059Z" agent="5.0 (iPad; CPU OS 14_0 like Mac OS X) AppleWebKit/605.1.15 (KHTML, like Gecko) CriOS/86.0.4240.93 Mobile/15E148 Safari/604.1" etag="bsiYLdU4lINOCOKlbpvc" version="13.8.0" type="github">
  <diagram id="qAJfIElCJc9vHNTwySN_" name="Page-1">
    <mxGraphModel dx="336" dy="900" grid="1" gridSize="10" guides="1" tooltips="1" connect="1" arrows="1" fold="1" page="1" pageScale="1" pageWidth="827" pageHeight="1169" math="0" shadow="0">
      <root>
        <mxCell id="0" />
        <mxCell id="1" parent="0" />
        <mxCell id="elUkl7cURp4TIdAyB3kj-1" value="" style="shape=process;whiteSpace=wrap;html=1;backgroundOutline=1;" vertex="1" parent="1">
          <mxGeometry x="130" y="280" width="120" height="60" as="geometry" />
        </mxCell>
      </root>
    </mxGraphModel>
  </diagram>
</mxfile>
